<?xml version="1.0" encoding="UTF-8"?>
<svg xmlns="http://www.w3.org/2000/svg" xmlns:xlink="http://www.w3.org/1999/xlink" viewBox="0 0 64 64" version="1.1" width="128px" height="128px">
<g id="surface1">
<path style=" fill:#C2CDE7;" d="M 58.800781 24.828125 L 52.140625 23.160156 C 51.839844 22.285156 51.484375 21.433594 51.070313 20.609375 L 54.609375 14.710938 C 55.292969 13.570313 55.109375 12.109375 54.171875 11.171875 L 50.839844 7.828125 C 49.902344 6.890625 48.441406 6.707031 47.300781 7.390625 L 41.398438 10.929688 C 40.570313 10.519531 39.714844 10.164063 38.839844 9.871094 L 37.171875 3.199219 C 36.847656 1.910156 35.691406 1 34.359375 1 L 29.640625 1 C 28.308594 1 27.152344 1.910156 26.828125 3.199219 L 25.160156 9.859375 C 24.285156 10.160156 23.433594 10.515625 22.609375 10.929688 L 16.699219 7.390625 C 15.558594 6.707031 14.097656 6.890625 13.160156 7.828125 L 9.828125 11.160156 C 8.890625 12.097656 8.707031 13.558594 9.390625 14.699219 L 12.929688 20.601563 C 12.519531 21.429688 12.164063 22.285156 11.871094 23.160156 L 5.199219 24.828125 C 3.910156 25.152344 3 26.308594 3 27.640625 L 3 32.351563 C 3 33.679688 3.910156 34.839844 5.199219 35.160156 L 11.859375 36.828125 C 12.160156 37.703125 12.515625 38.554688 12.929688 39.378906 L 9.390625 45.300781 C 8.707031 46.441406 8.890625 47.902344 9.828125 48.839844 L 13.160156 52.171875 C 14.097656 53.109375 15.558594 53.292969 16.699219 52.609375 L 22.601563 49.070313 C 23.429688 49.480469 24.285156 49.835938 25.160156 50.128906 L 26.828125 56.800781 C 27.152344 58.089844 28.308594 59 29.640625 59 L 34.351563 59 C 35.679688 59 36.839844 58.089844 37.160156 56.800781 L 38.828125 50.140625 C 39.703125 49.839844 40.554688 49.484375 41.378906 49.070313 L 47.28125 52.609375 C 48.421875 53.296875 49.882813 53.113281 50.820313 52.171875 L 54.148438 48.839844 C 55.089844 47.902344 55.273438 46.441406 54.589844 45.300781 L 51.050781 39.398438 C 51.460938 38.570313 51.816406 37.714844 52.109375 36.839844 L 58.78125 35.171875 C 60.078125 34.855469 60.996094 33.695313 61 32.359375 L 61 27.640625 C 61 26.308594 60.089844 25.152344 58.800781 24.828125 Z "/>
<path style=" fill:#D3DDED;" d="M 52.140625 23.160156 C 51.839844 22.285156 51.484375 21.433594 51.070313 20.609375 L 54.609375 14.710938 C 55.292969 13.570313 55.109375 12.109375 54.171875 11.171875 L 53.5 10.5 L 12.710938 51.289063 C 13.328125 51.878906 13.96875 52.429688 14.640625 52.960938 C 15.347656 53.105469 16.082031 52.980469 16.699219 52.609375 L 22.601563 49.070313 C 23.429688 49.480469 24.285156 49.835938 25.160156 50.128906 L 25.898438 53.128906 L 55.101563 23.898438 Z "/>
<path style=" fill:#D3DDED;" d="M 51.511719 8.488281 L 51 8 L 46.28125 8 L 45.578125 8.421875 L 10.421875 43.578125 L 9.421875 45.300781 C 9.125 45.785156 8.980469 46.34375 9 46.910156 C 9.550781 47.714844 10.140625 48.488281 10.769531 49.230469 Z "/>
<path style=" fill:#D3DDED;" d="M 38.839844 9.859375 L 38.101563 6.859375 L 8.898438 36.101563 L 11.898438 36.839844 C 12.011719 37.148438 12.128906 37.46875 12.261719 37.78125 L 39.78125 10.21875 C 39.46875 10.089844 39.148438 10 38.839844 9.859375 Z "/>
<path style=" fill:#ACB7D0;" d="M 45 30 C 45 37.179688 39.179688 43 32 43 C 24.820313 43 19 37.179688 19 30 C 19 22.820313 24.820313 17 32 17 C 39.179688 17 45 22.820313 45 30 Z "/>
<path style=" fill:#F9DD8F;" d="M 39 30 C 39 33.867188 35.867188 37 32 37 C 28.132813 37 25 33.867188 25 30 C 25 26.132813 28.132813 23 32 23 C 35.867188 23 39 26.132813 39 30 Z "/>
<path style=" fill:#FFF8F8;" d="M 32.5 7 L 33.738281 9.261719 L 36 10.5 L 33.738281 11.738281 L 32.5 14 L 31.261719 11.738281 L 29 10.5 L 31.261719 9.261719 Z "/>
<path style=" fill:#FFF8F8;" d="M 18.421875 40 L 19.269531 41.558594 L 20.839844 42.421875 L 19.269531 43.269531 L 18.421875 44.839844 L 17.558594 43.269531 L 16 42.421875 L 17.558594 41.558594 Z "/>
<path style=" fill:#FFF8F8;" d="M 46.351563 17 L 46.941406 18.070313 L 48 18.648438 L 46.941406 19.230469 L 46.351563 20.300781 L 45.769531 19.230469 L 44.699219 18.648438 L 45.769531 18.070313 Z "/>
<path style=" fill:#CED8ED;" d="M 33 35 L 63 35 L 63 39 L 33 39 Z "/>
<path style=" fill:#8B8E98;" d="M 33 39 L 63 39 L 63 63 L 33 63 Z "/>
<path style=" fill:#8D6C9F;" d="M 21 31 C 21.550781 31 22 30.550781 22 30 C 22 29.449219 21.550781 29 21 29 L 19 29 C 18.449219 29 18 29.449219 18 30 C 18 30.550781 18.449219 31 19 31 Z "/>
<path style=" fill:#8D6C9F;" d="M 23.511719 37.070313 L 22.101563 38.488281 C 21.816406 38.734375 21.691406 39.117188 21.777344 39.484375 C 21.867188 39.847656 22.152344 40.132813 22.515625 40.222656 C 22.882813 40.308594 23.265625 40.183594 23.511719 39.898438 L 24.921875 38.488281 C 25.261719 38.09375 25.238281 37.5 24.867188 37.132813 C 24.5 36.761719 23.90625 36.738281 23.511719 37.078125 Z "/>
<path style=" fill:#8D6C9F;" d="M 23.511719 22.929688 C 23.90625 23.269531 24.5 23.246094 24.867188 22.878906 C 25.238281 22.507813 25.261719 21.917969 24.921875 21.519531 L 23.511719 20.101563 C 23.113281 19.761719 22.523438 19.78125 22.152344 20.152344 C 21.78125 20.523438 21.761719 21.113281 22.101563 21.511719 Z "/>
<path style=" fill:#8D6C9F;" d="M 22.730469 33.75 C 22.523438 33.238281 21.941406 32.992188 21.429688 33.199219 L 19.578125 33.949219 C 19.226563 34.066406 18.96875 34.371094 18.910156 34.738281 C 18.851563 35.105469 19 35.476563 19.300781 35.699219 C 19.597656 35.921875 19.996094 35.960938 20.328125 35.800781 L 22.179688 35 C 22.664063 34.792969 22.902344 34.246094 22.730469 33.75 Z "/>
<path style=" fill:#8D6C9F;" d="M 28.089844 39.210938 C 27.582031 38.996094 26.996094 39.230469 26.78125 39.738281 L 26 41.578125 C 25.84375 41.910156 25.882813 42.300781 26.097656 42.597656 C 26.316406 42.894531 26.675781 43.046875 27.039063 42.996094 C 27.402344 42.945313 27.710938 42.703125 27.839844 42.359375 L 28.621094 40.519531 C 28.835938 40.011719 28.597656 39.425781 28.089844 39.210938 Z "/>
<path style=" fill:#8D6C9F;" d="M 19.640625 25.839844 L 21.480469 26.621094 C 21.8125 26.777344 22.203125 26.738281 22.496094 26.519531 C 22.792969 26.304688 22.945313 25.941406 22.894531 25.578125 C 22.847656 25.21875 22.601563 24.910156 22.261719 24.78125 L 20.421875 24 C 20.089844 23.84375 19.699219 23.882813 19.402344 24.097656 C 19.105469 24.316406 18.953125 24.675781 19.003906 25.039063 C 19.054688 25.402344 19.296875 25.710938 19.640625 25.839844 Z "/>
<path style=" fill:#8D6C9F;" d="M 29.308594 35.371094 C 26.667969 34.046875 25.386719 30.992188 26.285156 28.179688 C 27.183594 25.363281 30 23.625 32.921875 24.078125 C 35.84375 24.53125 37.996094 27.042969 38 30 C 38 30.199219 38 30.394531 38 30.578125 C 37.949219 31.132813 38.351563 31.621094 38.90625 31.675781 C 39.457031 31.726563 39.949219 31.324219 40 30.769531 C 40 30.511719 40 30.261719 40 29.988281 C 39.996094 26.046875 37.125 22.695313 33.230469 22.089844 C 29.332031 21.484375 25.578125 23.808594 24.378906 27.5625 C 23.179688 31.316406 24.894531 35.386719 28.421875 37.148438 C 28.914063 37.398438 29.515625 37.199219 29.765625 36.703125 C 30.011719 36.210938 29.8125 35.609375 29.320313 35.359375 Z "/>
<path style=" fill:#8D6C9F;" d="M 28 18.640625 C 28.101563 18.65625 28.207031 18.65625 28.308594 18.640625 C 29 18.414063 29.710938 18.253906 30.429688 18.160156 C 30.980469 18.085938 31.371094 17.578125 31.296875 17.023438 C 31.21875 16.472656 30.710938 16.085938 30.160156 16.160156 C 29.320313 16.273438 28.496094 16.460938 27.691406 16.71875 C 27.136719 16.804688 26.757813 17.324219 26.84375 17.875 C 26.929688 18.425781 27.449219 18.804688 28 18.71875 Z "/>
<path style=" fill:#8D6C9F;" d="M 34 30 C 34 31.105469 33.105469 32 32 32 C 30.894531 32 30 31.105469 30 30 C 30 28.894531 30.894531 28 32 28 C 33.105469 28 34 28.894531 34 30 Z "/>
<path style=" fill:#FAEFDE;" d="M 57 46 L 49 46 C 48.449219 46 48 46.449219 48 47 C 48 47.550781 48.449219 48 49 48 L 57 48 C 57.550781 48 58 47.550781 58 47 C 58 46.449219 57.550781 46 57 46 Z "/>
<path style=" fill:#FAEFDE;" d="M 53 54 L 49 54 C 48.449219 54 48 54.449219 48 55 C 48 55.550781 48.449219 56 49 56 L 53 56 C 53.550781 56 54 55.550781 54 55 C 54 54.449219 53.550781 54 53 54 Z "/>
<path style=" fill:#FAEFDE;" d="M 44.289063 44.289063 L 41 47.589844 L 39.710938 46.300781 C 39.3125 45.960938 38.722656 45.984375 38.351563 46.351563 C 37.984375 46.722656 37.960938 47.3125 38.300781 47.710938 L 40.300781 49.710938 C 40.691406 50.097656 41.320313 50.097656 41.710938 49.710938 L 45.710938 45.710938 C 46.050781 45.3125 46.027344 44.722656 45.65625 44.351563 C 45.289063 43.984375 44.695313 43.960938 44.300781 44.300781 Z "/>
<path style=" fill:#FAEFDE;" d="M 44.289063 52.289063 L 41 55.589844 L 39.710938 54.300781 C 39.3125 53.960938 38.722656 53.984375 38.351563 54.351563 C 37.984375 54.722656 37.960938 55.3125 38.300781 55.710938 L 40.300781 57.710938 C 40.691406 58.097656 41.320313 58.097656 41.710938 57.710938 L 45.710938 53.710938 C 46.050781 53.3125 46.027344 52.722656 45.65625 52.351563 C 45.289063 51.984375 44.695313 51.960938 44.300781 52.300781 Z "/>
<path style=" fill:#8D6C9F;" d="M 61.519531 34.050781 C 61.828125 33.570313 61.996094 33.011719 62 32.441406 L 62 27.558594 C 62 26.183594 61.0625 24.984375 59.730469 24.648438 L 52.839844 22.921875 C 52.53125 22.015625 52.160156 21.132813 51.730469 20.28125 L 55.390625 14.171875 C 56.097656 12.992188 55.910156 11.484375 54.941406 10.511719 L 51.488281 7.058594 C 50.515625 6.089844 49.007813 5.902344 47.828125 6.609375 L 41.71875 10.269531 C 40.863281 9.84375 39.976563 9.476563 39.070313 9.171875 L 37.351563 2.269531 C 37.015625 0.9375 35.816406 0 34.441406 0 L 29.558594 0 C 28.183594 0 26.984375 0.9375 26.648438 2.269531 L 24.921875 9.171875 C 24.015625 9.480469 23.132813 9.851563 22.28125 10.28125 L 16.179688 6.609375 C 15 5.898438 13.484375 6.085938 12.511719 7.058594 L 9.058594 10.511719 C 8.085938 11.484375 7.898438 13 8.609375 14.179688 L 12.269531 20.289063 C 11.84375 21.144531 11.476563 22.027344 11.171875 22.929688 L 4.269531 24.648438 C 2.9375 24.984375 2 26.183594 2 27.558594 L 2 32.441406 C 2 33.816406 2.9375 35.015625 4.269531 35.351563 L 11.160156 37.078125 C 11.46875 37.984375 11.839844 38.867188 12.269531 39.71875 L 8.609375 45.820313 C 7.898438 47 8.085938 48.515625 9.058594 49.488281 L 12.511719 52.941406 C 13.484375 53.914063 15 54.101563 16.179688 53.390625 L 22.289063 49.730469 C 23.144531 50.15625 24.027344 50.523438 24.929688 50.828125 L 26.648438 57.730469 C 26.984375 59.0625 28.183594 60 29.558594 60 L 32 60 L 32 61 C 32 62.65625 33.34375 64 35 64 L 61 64 C 62.65625 64 64 62.65625 64 61 L 64 37 C 63.996094 35.546875 62.953125 34.300781 61.519531 34.050781 Z M 62 37 L 62 38 L 34 38 L 34 37 C 34 36.449219 34.449219 36 35 36 L 61 36 C 61.550781 36 62 36.449219 62 37 Z M 29.558594 58 C 29.089844 58.015625 28.671875 57.695313 28.558594 57.238281 L 26.839844 50.351563 C 26.675781 49.6875 26.183594 49.15625 25.539063 48.941406 C 24.71875 48.660156 23.917969 48.324219 23.140625 47.941406 C 22.53125 47.632813 21.804688 47.660156 21.21875 48.011719 L 15.109375 51.671875 C 14.71875 51.90625 14.214844 51.84375 13.890625 51.519531 L 10.441406 48.070313 C 10.117188 47.746094 10.054688 47.242188 10.289063 46.851563 L 14 40.75 C 14.347656 40.164063 14.375 39.441406 14.070313 38.828125 C 13.683594 38.050781 13.351563 37.25 13.070313 36.429688 C 12.855469 35.789063 12.328125 35.296875 11.671875 35.128906 L 4.769531 33.410156 C 4.3125 33.296875 3.996094 32.878906 4.011719 32.410156 L 4.011719 27.558594 C 3.996094 27.089844 4.3125 26.671875 4.769531 26.558594 L 11.671875 24.839844 C 12.328125 24.671875 12.855469 24.183594 13.070313 23.539063 C 13.351563 22.71875 13.683594 21.917969 14.070313 21.140625 C 14.363281 20.539063 14.339844 19.828125 14 19.25 L 10.339844 13.140625 C 10.105469 12.746094 10.167969 12.246094 10.488281 11.921875 L 13.941406 8.46875 C 14.265625 8.144531 14.765625 8.085938 15.160156 8.320313 L 21.25 12 C 21.835938 12.347656 22.558594 12.375 23.171875 12.070313 C 23.949219 11.683594 24.75 11.351563 25.570313 11.070313 C 26.210938 10.855469 26.703125 10.328125 26.871094 9.671875 L 28.589844 2.769531 C 28.703125 2.3125 29.121094 1.996094 29.589844 2.011719 L 34.46875 2.011719 C 34.941406 1.996094 35.355469 2.3125 35.46875 2.769531 L 37.191406 9.671875 C 37.359375 10.328125 37.847656 10.855469 38.488281 11.070313 C 39.3125 11.351563 40.113281 11.683594 40.890625 12.070313 C 41.484375 12.355469 42.179688 12.328125 42.75 12 L 48.859375 8.339844 C 49.253906 8.105469 49.753906 8.167969 50.078125 8.488281 L 53.53125 11.941406 C 53.855469 12.265625 53.914063 12.765625 53.679688 13.160156 L 50 19.25 C 49.652344 19.835938 49.625 20.558594 49.929688 21.171875 C 50.316406 21.949219 50.648438 22.75 50.929688 23.570313 C 51.144531 24.210938 51.671875 24.703125 52.328125 24.871094 L 59.230469 26.589844 C 59.6875 26.703125 60.003906 27.121094 59.988281 27.589844 L 59.988281 32.46875 C 60.003906 32.941406 59.6875 33.355469 59.230469 33.46875 L 57 34 L 45.421875 34 C 46.515625 30.328125 46.058594 26.367188 44.15625 23.042969 C 42.253906 19.714844 39.070313 17.316406 35.351563 16.398438 C 34.824219 16.292969 34.304688 16.617188 34.175781 17.140625 C 34.046875 17.660156 34.355469 18.191406 34.871094 18.339844 C 38.160156 19.152344 40.949219 21.316406 42.554688 24.300781 C 44.164063 27.285156 44.433594 30.808594 43.300781 34 L 35 34 C 33.34375 34 32 35.34375 32 37 L 32 58 Z M 61 62 L 35 62 C 34.449219 62 34 61.550781 34 61 L 34 40 L 62 40 L 62 61 C 62 61.550781 61.550781 62 61 62 Z "/>
</g>
</svg>
